<svg width="80" height="76" viewBox="0 0 80 76" fill="none" xmlns="http://www.w3.org/2000/svg">
<mask id="mask0_353_2386" style="mask-type:alpha" maskUnits="userSpaceOnUse" x="28" y="14" width="24" height="25">
<rect x="28" y="14.5" width="24" height="24" fill="#D9D9D9"/>
</mask>
<g mask="url(#mask0_353_2386)">
<path d="M30.3413 38.5151C29.6974 38.5151 29.1461 38.2858 28.6876 37.8273C28.229 37.3687 27.9998 36.8175 27.9998 36.1736V19.7828C27.9998 19.1389 28.229 18.5877 28.6876 18.1291C29.1461 17.6706 29.6974 17.4413 30.3413 17.4413H40.7904L38.4489 19.7828H30.3413V36.1736H46.732V28.0367L49.0736 25.6952V36.1736C49.0736 36.8175 48.8443 37.3687 48.3857 37.8273C47.9272 38.2858 47.376 38.5151 46.732 38.5151H30.3413ZM43.4246 18.1145L45.093 19.7536L37.3659 27.4806V29.149H39.005L46.7613 21.3926L48.4296 23.0317L40.6733 30.788C40.4587 31.0027 40.2099 31.1734 39.9269 31.3003C39.644 31.4271 39.3464 31.4905 39.0342 31.4905H36.1951C35.8634 31.4905 35.5854 31.3783 35.361 31.1539C35.1366 30.9295 35.0244 30.6515 35.0244 30.3197V27.4806C35.0244 27.1684 35.0829 26.8709 35.2 26.5879C35.3171 26.305 35.4829 26.0562 35.6976 25.8416L43.4246 18.1145ZM48.4296 23.0317L43.4246 18.1145L46.3515 15.1876C46.8198 14.7193 47.3808 14.4851 48.0345 14.4851C48.6882 14.4851 49.2394 14.7193 49.6882 15.1876L51.3273 16.8559C51.7761 17.3047 52.0005 17.8511 52.0005 18.495C52.0005 19.1389 51.7761 19.6853 51.3273 20.1341L48.4296 23.0317Z" fill="#CDCDCD"/>
</g>
<path d="M14.7266 58.5L13.3203 54.875H8.74219L7.34375 58.5H6L10.4688 47.0312H11.6641L16.1016 58.5H14.7266ZM12.9219 53.6953L11.5859 50.0938C11.5547 50 11.5026 49.8464 11.4297 49.6328C11.362 49.4193 11.2917 49.1979 11.2188 48.9688C11.1458 48.7396 11.0859 48.5547 11.0391 48.4141C10.987 48.6276 10.9297 48.8411 10.8672 49.0547C10.8099 49.263 10.7526 49.4583 10.6953 49.6406C10.638 49.8177 10.5885 49.9688 10.5469 50.0938L9.1875 53.6953H12.9219ZM20.5391 58.6562C19.4557 58.6562 18.5964 58.2865 17.9609 57.5469C17.3307 56.8073 17.0156 55.7083 17.0156 54.25C17.0156 52.776 17.3385 51.6641 17.9844 50.9141C18.6302 50.1589 19.4896 49.7812 20.5625 49.7812C21.0156 49.7812 21.4115 49.8411 21.75 49.9609C22.0885 50.0807 22.3802 50.2422 22.625 50.4453C22.8698 50.6432 23.0755 50.8698 23.2422 51.125H23.3359C23.3151 50.9635 23.2943 50.7422 23.2734 50.4609C23.2526 50.1797 23.2422 49.9505 23.2422 49.7734V46.3438H24.5391V58.5H23.4922L23.2969 57.2812H23.2422C23.0807 57.5365 22.875 57.7682 22.625 57.9766C22.3802 58.1849 22.0859 58.3516 21.7422 58.4766C21.4036 58.5964 21.0026 58.6562 20.5391 58.6562ZM20.7422 57.5781C21.6589 57.5781 22.3073 57.3177 22.6875 56.7969C23.0677 56.276 23.2578 55.5026 23.2578 54.4766V54.2422C23.2578 53.1536 23.0755 52.3177 22.7109 51.7344C22.3516 51.151 21.6953 50.8594 20.7422 50.8594C19.9453 50.8594 19.349 51.1667 18.9531 51.7812C18.5573 52.3906 18.3594 53.224 18.3594 54.2812C18.3594 55.3333 18.5547 56.1458 18.9453 56.7188C19.3411 57.2917 19.9401 57.5781 20.7422 57.5781ZM30.3359 58.6562C29.2526 58.6562 28.3932 58.2865 27.7578 57.5469C27.1276 56.8073 26.8125 55.7083 26.8125 54.25C26.8125 52.776 27.1354 51.6641 27.7812 50.9141C28.4271 50.1589 29.2865 49.7812 30.3594 49.7812C30.8125 49.7812 31.2083 49.8411 31.5469 49.9609C31.8854 50.0807 32.1771 50.2422 32.4219 50.4453C32.6667 50.6432 32.8724 50.8698 33.0391 51.125H33.1328C33.112 50.9635 33.0911 50.7422 33.0703 50.4609C33.0495 50.1797 33.0391 49.9505 33.0391 49.7734V46.3438H34.3359V58.5H33.2891L33.0938 57.2812H33.0391C32.8776 57.5365 32.6719 57.7682 32.4219 57.9766C32.1771 58.1849 31.8828 58.3516 31.5391 58.4766C31.2005 58.5964 30.7995 58.6562 30.3359 58.6562ZM30.5391 57.5781C31.4557 57.5781 32.1042 57.3177 32.4844 56.7969C32.8646 56.276 33.0547 55.5026 33.0547 54.4766V54.2422C33.0547 53.1536 32.8724 52.3177 32.5078 51.7344C32.1484 51.151 31.4922 50.8594 30.5391 50.8594C29.7422 50.8594 29.1458 51.1667 28.75 51.7812C28.3542 52.3906 28.1562 53.224 28.1562 54.2812C28.1562 55.3333 28.3516 56.1458 28.7422 56.7188C29.138 57.2917 29.737 57.5781 30.5391 57.5781ZM44.9453 58.5H43.6094V48.25H40.0156V47.0781H48.5234V48.25H44.9453V58.5ZM53.2578 49.7969C54.2786 49.7969 55.0365 50.026 55.5312 50.4844C56.026 50.9427 56.2734 51.6745 56.2734 52.6797V58.5H55.3281L55.0781 57.2344H55.0156C54.776 57.5469 54.526 57.8099 54.2656 58.0234C54.0052 58.2318 53.7031 58.3906 53.3594 58.5C53.0208 58.6042 52.6042 58.6562 52.1094 58.6562C51.5885 58.6562 51.125 58.5651 50.7188 58.3828C50.3177 58.2005 50 57.9245 49.7656 57.5547C49.5365 57.1849 49.4219 56.7161 49.4219 56.1484C49.4219 55.2943 49.7604 54.638 50.4375 54.1797C51.1146 53.7214 52.1458 53.4714 53.5312 53.4297L55.0078 53.3672V52.8438C55.0078 52.1042 54.849 51.5859 54.5312 51.2891C54.2135 50.9922 53.7656 50.8438 53.1875 50.8438C52.7396 50.8438 52.3125 50.9089 51.9062 51.0391C51.5 51.1693 51.1146 51.3229 50.75 51.5L50.3516 50.5156C50.737 50.3177 51.1797 50.1484 51.6797 50.0078C52.1797 49.8672 52.7057 49.7969 53.2578 49.7969ZM54.9922 54.2812L53.6875 54.3359C52.6198 54.3776 51.8672 54.5521 51.4297 54.8594C50.9922 55.1667 50.7734 55.6016 50.7734 56.1641C50.7734 56.6536 50.9219 57.0156 51.2188 57.25C51.5156 57.4844 51.9089 57.6016 52.3984 57.6016C53.1589 57.6016 53.7812 57.3906 54.2656 56.9688C54.75 56.5469 54.9922 55.9141 54.9922 55.0703V54.2812ZM64.4844 56.1562C64.4844 56.7031 64.3464 57.1641 64.0703 57.5391C63.7995 57.9089 63.4089 58.1875 62.8984 58.375C62.3932 58.5625 61.7891 58.6562 61.0859 58.6562C60.487 58.6562 59.9688 58.6094 59.5312 58.5156C59.0938 58.4219 58.7109 58.2891 58.3828 58.1172V56.9219C58.7318 57.0938 59.1484 57.25 59.6328 57.3906C60.1172 57.5312 60.612 57.6016 61.1172 57.6016C61.8568 57.6016 62.3932 57.4818 62.7266 57.2422C63.0599 57.0026 63.2266 56.6771 63.2266 56.2656C63.2266 56.0312 63.1589 55.8255 63.0234 55.6484C62.8932 55.4661 62.6719 55.2917 62.3594 55.125C62.0469 54.9531 61.6146 54.7656 61.0625 54.5625C60.5156 54.3542 60.0417 54.1484 59.6406 53.9453C59.2448 53.737 58.9375 53.4844 58.7188 53.1875C58.5052 52.8906 58.3984 52.5052 58.3984 52.0312C58.3984 51.3073 58.6901 50.7526 59.2734 50.3672C59.862 49.9766 60.6328 49.7812 61.5859 49.7812C62.1016 49.7812 62.5833 49.8333 63.0312 49.9375C63.4844 50.0365 63.9062 50.1719 64.2969 50.3438L63.8594 51.3828C63.5052 51.2318 63.1276 51.1042 62.7266 51C62.3255 50.8958 61.9167 50.8438 61.5 50.8438C60.901 50.8438 60.4401 50.9427 60.1172 51.1406C59.7995 51.3385 59.6406 51.6094 59.6406 51.9531C59.6406 52.2188 59.7135 52.4375 59.8594 52.6094C60.0104 52.7812 60.25 52.9427 60.5781 53.0938C60.9062 53.2448 61.3385 53.4219 61.875 53.625C62.4115 53.8229 62.875 54.0286 63.2656 54.2422C63.6562 54.4505 63.9557 54.7057 64.1641 55.0078C64.3776 55.3047 64.4844 55.6875 64.4844 56.1562ZM67.8594 46.3438V52.6562C67.8594 52.8646 67.8516 53.1198 67.8359 53.4219C67.8203 53.7188 67.8073 53.9818 67.7969 54.2109H67.8516C67.9609 54.0755 68.1198 53.875 68.3281 53.6094C68.5417 53.3438 68.7214 53.1302 68.8672 52.9688L71.7109 49.9375H73.2344L69.7891 53.5938L73.4844 58.5H71.9219L68.8984 54.4453L67.8594 55.3984V58.5H66.5703V46.3438H67.8594Z" fill="#CDCDCD"/>
</svg>
